<svg xmlns="http://www.w3.org/2000/svg" viewBox="0 0 100 100" fill="none">
  <!-- Sunburst Rays -->
  <line x1="50" y1="6" x2="50" y2="14" stroke="#D4AF37" stroke-width="2.2" stroke-linecap="round"/>
  <line x1="40" y1="10" x2="43" y2="16" stroke="#D4AF37" stroke-width="2" stroke-linecap="round"/>
  <line x1="60" y1="10" x2="57" y2="16" stroke="#D4AF37" stroke-width="2" stroke-linecap="round"/>
  <line x1="32" y1="16" x2="38" y2="21" stroke="#D4AF37" stroke-width="1.8" stroke-linecap="round"/>
  <line x1="68" y1="16" x2="62" y2="21" stroke="#D4AF37" stroke-width="1.8" stroke-linecap="round"/>

  <!-- Brilliant Cut Diamond -->
  <polygon points="50,18 42,24 45,30 55,30 58,24" fill="#F4EBD9" stroke="#B89758" stroke-width="1.2" stroke-linejoin="round"/>
  <line x1="42" y1="24" x2="58" y2="24" stroke="#B89758" stroke-width="1"/>
  <line x1="50" y1="18" x2="47" y2="24" stroke="#B89758" stroke-width="0.8"/>
  <line x1="50" y1="18" x2="53" y2="24" stroke="#B89758" stroke-width="0.8"/>
  <line x1="47" y1="24" x2="50" y2="30" stroke="#B89758" stroke-width="0.8"/>
  <line x1="53" y1="24" x2="50" y2="30" stroke="#B89758" stroke-width="0.8"/>

  <!-- Gold Ring Band -->
  <circle cx="50" cy="54" r="26" stroke="#D4AF37" stroke-width="3" fill="none" opacity="0.95"/>
  <circle cx="50" cy="54" r="23" stroke="#B89758" stroke-width="1" fill="none" opacity="0.5"/>

  <!-- Interlocking Monogram 'A' -->
  <path d="M50 36 L34 76 L40 76 L48 55 L58 76 L64 76 Z" fill="#EDE7DC" stroke="#C5B28D" stroke-width="1" stroke-linejoin="round"/>
  <path d="M43 65 L60 65 L60 70 L41 70 Z" fill="#D4AF37" stroke="#9A7B38" stroke-width="0.8"/>
  <path d="M50 45 L45 58 L55 58 Z" fill="#132A22"/>
</svg>